<?xml version="1.0" encoding="UTF-8"?>
<svg width="24" height="24" viewBox="0 0 24 24" fill="none" xmlns="http://www.w3.org/2000/svg">
    <path d="M19 11H17.3C17.3 11.74 17.14 12.43 16.87 13.05L18.1 14.28C18.66 13.3 19 12.19 19 11Z" fill="white"/>
    <path d="M14.98 11.17C14.98 11.11 15 11.06 15 11V5C15 3.34 13.66 2 12 2C10.34 2 9 3.34 9 5V5.18L14.98 11.17Z" fill="white"/>
    <path d="M4.27 3L3 4.27L9.01 10.28V11C9.01 12.66 10.35 14 12.01 14C12.35 14 12.67 13.92 12.97 13.83L16.93 17.79C16.21 18.24 15.38 18.57 14.47 18.72V21H9.47V18.72C6.08 18.23 3.47 15.32 3.47 11.79H5.47C5.47 14.32 7.94 16.44 11.01 16.93V18.72H13.01V16.93C13.85 16.8 14.63 16.52 15.33 16.13L19.73 20.53L21 19.26L4.27 3Z" fill="white"/>
</svg> 